<svg xmlns="http://www.w3.org/2000/svg" viewBox="0 0 556.38 196.48"><defs><style>.\31 bff25dd-36b9-4fea-974f-b56cd06deb91{fill:#fff;}</style></defs><title>Fichier 2</title><g id="975e2242-22fe-4377-a69a-3c3de27c4cec" data-name="Calque 2"><g id="d80479e7-775c-4b58-88a2-21efdd585cfb" data-name="Calque 1"><rect class="1bff25dd-36b9-4fea-974f-b56cd06deb91" x="258.24" y="104.14" width="1.73" height="92.34"/><path class="1bff25dd-36b9-4fea-974f-b56cd06deb91" d="M25.8,34.56H60.24v18.6H25.8V65.88H63.24V86.16H4.08V1.2H63.24V21.36H25.8Z"/><path class="1bff25dd-36b9-4fea-974f-b56cd06deb91" d="M109.92,33c-6.6-1.44-11-3.84-11.28-7.92.36-9.84,15.6-10.2,24.48-.72l14-10.8C128.4,2.88,118.44,0,108.12,0,92.52,0,77.4,8.76,77.4,25.44c0,16.08,12.29,24.71,25.85,27a36.89,36.89,0,0,0,6.61.15,41.1,41.1,0,0,1,10.24.92c.36.07.73.15,1.09.24a44,44,0,0,1,18,8.85c0-.21,0-.42,0-.63C140.16,41,125,35.76,109.92,33Z"/><path class="1bff25dd-36b9-4fea-974f-b56cd06deb91" d="M154.56,1.2h34c20.76,0,31.08,15,31.08,30s-10.44,30.12-31,30.12H176V86.16H154.56Zm34,41c13,.12,13-21.12,0-21H176v21Z"/><path class="1bff25dd-36b9-4fea-974f-b56cd06deb91" d="M299.64,86.16h-23l-5.52-17H248.4l-5.28,17h-23l29.64-85h19.56ZM265.92,50,260,25.2h-.6L253.2,50Z"/><path class="1bff25dd-36b9-4fea-974f-b56cd06deb91" d="M371.16,68.28a34.18,34.18,0,0,1-30.6,19.08c-16.68,0-33.48-9.72-33.48-29V29c0-19.2,16.8-29,33.84-29,10.44,0,23,4.44,29.88,19.56l-17.52,7.08c-5.76-10.56-24.72-8.16-24.72,2.4V58.32c0,10.2,19.2,13.08,23.88,1.32Z"/><path class="1bff25dd-36b9-4fea-974f-b56cd06deb91" d="M406.8,34.56h34.44v18.6H406.8V65.88h37.44V86.16H385.08V1.2h59.16V21.36H406.8Z"/><path class="1bff25dd-36b9-4fea-974f-b56cd06deb91" d="M13.56,164.28C22.08,174.6,40.8,175.08,41.4,166c.24-4.8-7.56-7.56-14.52-8.52C13.2,155.28.72,146.64.72,130.44.72,113.76,15.84,105,31.44,105c10.32,0,20.28,2.88,29,13.56l-14,10.8c-8.88-9.48-24.12-9.12-24.48.72.24,4.08,4.68,6.48,11.28,7.92,15.12,2.76,30.24,8,29.28,28.92-.72,16.44-18,25.44-33.6,25.44-10.2,0-21-5.16-28.92-15.36Z"/><path class="1bff25dd-36b9-4fea-974f-b56cd06deb91" d="M123.48,138.85v23.87c-.12,13.68-24.36,13.68-24.36,0V138.88a44.08,44.08,0,0,1-21.72-14.2v38c-.12,39.84,67.68,39.84,67.8,0V124.56A44,44,0,0,1,123.48,138.85Z"/><path class="1bff25dd-36b9-4fea-974f-b56cd06deb91" d="M195.84,106.2c17,0,33,8.64,33,28.44V163.2c0,19.56-16,28.08-33,28H164v-85Zm.72,64.8c7.32,0,10.68-3.72,10.68-9.24V135.24c0-5.52-3.48-9-10.68-9H185.64V171Z"/><path class="1bff25dd-36b9-4fea-974f-b56cd06deb91" d="M139.23,62.92h-.1a.28.28,0,0,0,0-.09Z"/><path class="1bff25dd-36b9-4fea-974f-b56cd06deb91" d="M115.5,75.34"/><path class="1bff25dd-36b9-4fea-974f-b56cd06deb91" d="M284,133.73l-2.53-4.55h-1.34v4.55h-3.52V118c1.79-.11,3.49-.2,5.28-.28a5.49,5.49,0,0,1,5.54,5.8,5.6,5.6,0,0,1-2.39,4.86l3,5.4ZM280.11,126h1.56a2.22,2.22,0,0,0,2.19-2.33c0-1.51-.74-2.47-2.25-2.47-.54,0-1,0-1.51.08Z"/><path class="1bff25dd-36b9-4fea-974f-b56cd06deb91" d="M290.93,117.82l10.17,0v3.32h-6.68v3.18H299v3.32h-4.6v2.78h6.68v3.32H290.93Zm4.57-2.3-1.08-2.22,5.09-3.41,1.62,3Z"/><path class="1bff25dd-36b9-4fea-974f-b56cd06deb91" d="M303.85,129.5l3.44-.94a1.91,1.91,0,0,0,1.82,1.71,1.38,1.38,0,0,0,1.53-1.42c-.09-2.27-6.76-1.71-6.76-6.54a4.87,4.87,0,0,1,5.14-4.63,5.26,5.26,0,0,1,5.37,4.21l-3.21.85a2,2,0,0,0-1.93-1.56c-.94,0-1.53.63-1.42,1.33.31,2,6.59,1.28,6.59,6.51a4.86,4.86,0,0,1-5.2,4.86A5.31,5.31,0,0,1,303.85,129.5Z"/><path class="1bff25dd-36b9-4fea-974f-b56cd06deb91" d="M321.3,133.73h-3.55V117.88l3.55-.17Z"/><path class="1bff25dd-36b9-4fea-974f-b56cd06deb91" d="M325.36,118c1.82-.11,3.61-.2,5.46-.28,3.1,0,6.45,2.61,6.45,8.27,0,6-4,7.79-6.79,7.79h-5.11Zm5.06,12.25c2.16,0,3.27-1.7,3.27-4.15,0-2.7-1.05-4.86-3.18-4.86-.57,0-1.05,0-1.62.08v8.92Z"/><path class="1bff25dd-36b9-4fea-974f-b56cd06deb91" d="M344.11,121.12v3.18h4.6v3.32h-4.6v2.78h6.68v3.32H340.62V117.82l10.17,0v3.32Z"/><path class="1bff25dd-36b9-4fea-974f-b56cd06deb91" d="M366.67,117.82v15.91h-3.21l-5.65-9.35v9.35h-3.55v-15.8l3.21-.2,5.65,9.52v-9.43Z"/><path class="1bff25dd-36b9-4fea-974f-b56cd06deb91" d="M369.9,126v-.45c0-5.2,3.27-7.87,6.85-7.87a6.3,6.3,0,0,1,5.91,4.15l-3.18,1.28a2.94,2.94,0,0,0-2.73-1.93c-1.62,0-3.35,1.14-3.35,4.38V126c0,3.24,1.73,4.38,3.35,4.38a2.91,2.91,0,0,0,2.78-2.16l3.21,1.31a6.09,6.09,0,0,1-6,4.35C373.17,133.87,369.9,131.2,369.9,126Z"/><path class="1bff25dd-36b9-4fea-974f-b56cd06deb91" d="M389.48,121.12v3.18h4.6v3.32h-4.6v2.78h6.68v3.32H386V117.82l10.17,0v3.32Z"/><path class="1bff25dd-36b9-4fea-974f-b56cd06deb91" d="M398.91,129.5l3.44-.94a1.91,1.91,0,0,0,1.82,1.71,1.38,1.38,0,0,0,1.53-1.42c-.09-2.27-6.76-1.71-6.76-6.54a4.87,4.87,0,0,1,5.14-4.63,5.26,5.26,0,0,1,5.37,4.21l-3.21.85a2,2,0,0,0-1.93-1.56c-.94,0-1.53.63-1.42,1.33.31,2,6.59,1.28,6.59,6.51a4.86,4.86,0,0,1-5.2,4.86A5.31,5.31,0,0,1,398.91,129.5Z"/><path class="1bff25dd-36b9-4fea-974f-b56cd06deb91" d="M428.57,131.14h-5.43l-.74,2.59h-3.55L423.68,118l4.32-.26,4.86,16h-3.55Zm-.91-3.21-1.82-6.39-1.79,6.39Z"/><path class="1bff25dd-36b9-4fea-974f-b56cd06deb91" d="M442.86,133.73l-2.53-4.55H439v4.55h-3.52V118c1.79-.11,3.49-.2,5.28-.28a5.49,5.49,0,0,1,5.54,5.8,5.6,5.6,0,0,1-2.39,4.86l3,5.4ZM439,126h1.56a2.22,2.22,0,0,0,2.19-2.33c0-1.51-.74-2.47-2.25-2.47-.54,0-1,0-1.51.08Z"/><path class="1bff25dd-36b9-4fea-974f-b56cd06deb91" d="M458.91,121.26H455.3v12.47h-3.55V121.26H448.2v-3.44h10.71Z"/><path class="1bff25dd-36b9-4fea-974f-b56cd06deb91" d="M464.93,133.73h-3.55V117.88l3.55-.17Z"/><path class="1bff25dd-36b9-4fea-974f-b56cd06deb91" d="M468.28,129.5l3.44-.94a1.91,1.91,0,0,0,1.82,1.71,1.38,1.38,0,0,0,1.53-1.42c-.09-2.27-6.76-1.71-6.76-6.54a4.87,4.87,0,0,1,5.14-4.63,5.26,5.26,0,0,1,5.37,4.21l-3.21.85a2,2,0,0,0-1.93-1.56c-.94,0-1.53.63-1.42,1.33.31,2,6.59,1.28,6.59,6.51a4.86,4.86,0,0,1-5.2,4.86A5.31,5.31,0,0,1,468.28,129.5Z"/><path class="1bff25dd-36b9-4fea-974f-b56cd06deb91" d="M491.15,121.26h-3.61v12.47H484V121.26h-3.55v-3.44h10.71Z"/><path class="1bff25dd-36b9-4fea-974f-b56cd06deb91" d="M497.18,133.73h-3.55V117.88l3.55-.17Z"/><path class="1bff25dd-36b9-4fea-974f-b56cd06deb91" d="M514.59,133.73h-7.47c-3.61,0-6.65-2.9-6.65-7.64v-.77c0-4.74,3-7.64,6.65-7.64s6.65,2.9,6.65,7.64v.48a6.23,6.23,0,0,1-2.13,4.8h2Zm-7.47-3.5c1.68,0,3.13-1.36,3.13-4.15v-.77c0-2.78-1.45-4.15-3.12-4.15s-3.15,1.36-3.15,4.15v.77C504,128.87,505.44,130.24,507.12,130.24Z"/><path class="1bff25dd-36b9-4fea-974f-b56cd06deb91" d="M517,127.42l0-9.43,3.52-.2,0,9.35c0,2.1,1.14,3.18,2.61,3.18s2.61-1.14,2.61-3.18l-.06-9.32h3.52l.06,9.6c0,4.15-2.7,6.39-6.14,6.39S517.06,131.57,517,127.42Z"/><path class="1bff25dd-36b9-4fea-974f-b56cd06deb91" d="M536.38,121.12v3.18H541v3.32h-4.6v2.78h6.68v3.32H532.88V117.82l10.17,0v3.32Z"/><path class="1bff25dd-36b9-4fea-974f-b56cd06deb91" d="M545.81,129.5l3.44-.94a1.91,1.91,0,0,0,1.82,1.71,1.38,1.38,0,0,0,1.53-1.42c-.09-2.27-6.76-1.71-6.76-6.54a4.87,4.87,0,0,1,5.14-4.63,5.26,5.26,0,0,1,5.37,4.21l-3.21.85a2,2,0,0,0-1.93-1.56c-.94,0-1.53.63-1.42,1.33.31,2,6.59,1.28,6.59,6.51a4.86,4.86,0,0,1-5.2,4.86A5.31,5.31,0,0,1,545.81,129.5Z"/><path class="1bff25dd-36b9-4fea-974f-b56cd06deb91" d="M275.84,154v-.45c0-5.2,3.27-7.87,6.85-7.87a6.3,6.3,0,0,1,5.91,4.15l-3.18,1.28a2.94,2.94,0,0,0-2.73-1.93c-1.62,0-3.35,1.14-3.35,4.38V154c0,3.24,1.73,4.38,3.35,4.38a2.92,2.92,0,0,0,2.78-2.16l3.21,1.31a6.09,6.09,0,0,1-6,4.35C279.11,161.87,275.84,159.2,275.84,154Z"/><path class="1bff25dd-36b9-4fea-974f-b56cd06deb91" d="M291.3,154v-.45c0-5.2,3.15-7.87,6.76-7.87s6.79,2.67,6.79,7.87V154c0,5.2-3.18,7.87-6.79,7.87S291.3,159.2,291.3,154Zm10.06,0v-.45c0-3.47-1.62-4.6-3.3-4.6s-3.27,1.14-3.27,4.6V154c0,3.47,1.59,4.6,3.27,4.6S301.36,157.47,301.36,154Z"/><path class="1bff25dd-36b9-4fea-974f-b56cd06deb91" d="M307.86,155.42l0-9.43,3.52-.2,0,9.35c0,2.1,1.14,3.18,2.61,3.18s2.61-1.14,2.61-3.18l-.06-9.32h3.52l.06,9.6c0,4.15-2.7,6.39-6.14,6.39S307.89,159.57,307.86,155.42Z"/><path class="1bff25dd-36b9-4fea-974f-b56cd06deb91" d="M331.1,161.73l-2.53-4.55h-1.34v4.55h-3.52V146c1.79-.11,3.49-.2,5.28-.28a5.49,5.49,0,0,1,5.54,5.8,5.6,5.6,0,0,1-2.39,4.86l3,5.4ZM327.24,154h1.56a2.22,2.22,0,0,0,2.19-2.33c0-1.51-.74-2.47-2.25-2.47-.54,0-1,0-1.51.08Z"/><path class="1bff25dd-36b9-4fea-974f-b56cd06deb91" d="M337.35,157.5l3.44-.94a1.91,1.91,0,0,0,1.82,1.71,1.38,1.38,0,0,0,1.53-1.42c-.09-2.27-6.76-1.71-6.76-6.54a4.87,4.87,0,0,1,5.14-4.63,5.26,5.26,0,0,1,5.37,4.21l-3.21.85a2,2,0,0,0-1.93-1.56c-.94,0-1.53.63-1.42,1.33.31,2,6.59,1.28,6.59,6.51a4.86,4.86,0,0,1-5.2,4.86A5.31,5.31,0,0,1,337.35,157.5Z"/><path class="1bff25dd-36b9-4fea-974f-b56cd06deb91" d="M369.31,158.07l1.9,3.67h-3.78l-.54-1a5.87,5.87,0,0,1-3.64,1.31,5.29,5.29,0,0,1-5.6-5.11,5,5,0,0,1,4.46-5.26l-3-5.8h10.17v3.32h-4.6l3,5.65c.37-.62.71-1.31,1.05-2l2.87,1.45C370.87,155.45,370.16,156.82,369.31,158.07Zm-4-.31-1.62-3.12a2.21,2.21,0,0,0-2.53,2.64,2.18,2.18,0,0,0,3,1.17A4,4,0,0,0,365.33,157.75Z"/><path class="1bff25dd-36b9-4fea-974f-b56cd06deb91" d="M390.42,159.14H385l-.74,2.59H380.7L385.53,146l4.32-.26,4.86,16h-3.55Zm-.91-3.21-1.82-6.39-1.79,6.39Z"/><path class="1bff25dd-36b9-4fea-974f-b56cd06deb91" d="M405,149.26h-3.61v12.47h-3.55V149.26h-3.55v-3.44H405Z"/><path class="1bff25dd-36b9-4fea-974f-b56cd06deb91" d="M410.9,149.12v3.18h4.6v3.32h-4.6v2.78h6.68v3.32H407.41V145.82l10.17,0v3.32Z"/><path class="1bff25dd-36b9-4fea-974f-b56cd06deb91" d="M429.37,158.41v3.32H421V145.91l3.55-.2v12.7Z"/><path class="1bff25dd-36b9-4fea-974f-b56cd06deb91" d="M436.27,161.73h-3.55V145.88l3.55-.17Z"/><path class="1bff25dd-36b9-4fea-974f-b56cd06deb91" d="M443.83,149.12v3.18h4.6v3.32h-4.6v2.78h6.68v3.32H440.33V145.82l10.17,0v3.32Z"/><path class="1bff25dd-36b9-4fea-974f-b56cd06deb91" d="M461.35,161.73l-2.53-4.55h-1.34v4.55H454V146c1.79-.11,3.49-.2,5.28-.28a5.49,5.49,0,0,1,5.54,5.8,5.6,5.6,0,0,1-2.39,4.86l3,5.4ZM457.49,154h1.56a2.22,2.22,0,0,0,2.19-2.33c0-1.51-.74-2.47-2.25-2.47-.54,0-1,0-1.51.08Z"/><path class="1bff25dd-36b9-4fea-974f-b56cd06deb91" d="M467.6,157.5l3.44-.94a1.91,1.91,0,0,0,1.82,1.71,1.38,1.38,0,0,0,1.53-1.42c-.09-2.27-6.76-1.71-6.76-6.54a4.87,4.87,0,0,1,5.14-4.63,5.26,5.26,0,0,1,5.37,4.21l-3.21.85a2,2,0,0,0-1.93-1.56c-.94,0-1.53.63-1.42,1.33.31,2,6.59,1.28,6.59,6.51a4.86,4.86,0,0,1-5.2,4.86A5.31,5.31,0,0,1,467.6,157.5Z"/></g></g></svg>